<?xml version="1.0" encoding="UTF-8"?>
<svg id="Layer_1" data-name="Layer 1" xmlns="http://www.w3.org/2000/svg" viewBox="0 0 473.53 143.57">
  <defs>
    <style>
      .cls-1 {
        fill: #fff;
      }

      .cls-2 {
        fill: #ed1c24;
      }
    </style>
  </defs>
  <g>
    <path class="cls-1" d="M1.97,50.41h42.15c1.09,0,1.97.88,1.97,1.97v6.15c0,1.09-.88,1.97-1.97,1.97h-26.8c-1.09,0-1.97.88-1.97,1.97v1.11c0,1.09.88,1.97,1.97,1.97h26.8c1.09,0,1.97.88,1.97,1.97v5.18c0,1.09-.88,1.97-1.97,1.97h-26.8c-1.09,0-1.97.88-1.97,1.97v1.11c0,1.09.88,1.97,1.97,1.97h26.8c1.09,0,1.97.88,1.97,1.97v6.17c0,1.09-.88,1.97-1.97,1.97H1.97c-1.09,0-1.97-.88-1.97-1.97v-35.44c0-1.09.88-1.97,1.97-1.97Z"/>
    <path class="cls-1" d="M78.36,73.63l9.69-22.05c.31-.72,1.02-1.18,1.81-1.18h12.77c1.48,0,2.43,1.56,1.76,2.87l-18.16,35.43c-.34.66-1.02,1.07-1.76,1.07h-15.84c-.74,0-1.42-.41-1.76-1.07l-18.14-35.43c-.67-1.31.28-2.87,1.76-2.87h12.77c.78,0,1.49.46,1.81,1.18l9.69,22.05c.69,1.57,2.92,1.57,3.61,0Z"/>
    <path class="cls-1" d="M109.04,50.41h42.05c1.11,0,2.02.9,2.02,2.02v6.04c0,1.11-.9,2.02-2.02,2.02h-26.69c-1.11,0-2.02.9-2.02,2.02v1c0,1.11.9,2.02,2.02,2.02h26.69c1.11,0,2.02.9,2.02,2.02v5.07c0,1.11-.9,2.02-2.02,2.02h-26.69c-1.11,0-2.02.9-2.02,2.02v1c0,1.11.9,2.02,2.02,2.02h26.69c1.11,0,2.02.9,2.02,2.02v6.07c0,1.11-.9,2.02-2.02,2.02h-42.05c-1.11,0-2.02-.9-2.02-2.02v-35.34c0-1.11.9-2.02,2.02-2.02Z"/>
    <path class="cls-1" d="M201.64,50.35h11.42c1.09,0,1.98.89,1.98,1.98v35.42c0,1.09-.89,1.98-1.98,1.98h-14.41c-.57,0-1.11-.24-1.49-.67l-17.1-19.44c-1.2-1.37-3.46-.52-3.46,1.31v16.83c0,1.09-.89,1.98-1.98,1.98h-11.39c-1.09,0-1.98-.89-1.98-1.98v-35.42c0-1.09.89-1.98,1.98-1.98h18.21c.59,0,1.15.26,1.52.72l13.19,15.92c1.18,1.43,3.5.59,3.5-1.26v-13.39c0-1.09.89-1.98,1.98-1.98Z"/>
    <path class="cls-1" d="M238.62,86.81v-20.95c0-1.64-1.33-2.97-2.97-2.97h-12.31c-1.64,0-2.97-1.33-2.97-2.97v-6.53c0-1.64,1.33-2.97,2.97-2.97h45.91c1.64,0,2.97,1.33,2.97,2.97v6.53c0,1.64-1.33,2.97-2.97,2.97h-12.31c-1.64,0-2.97,1.33-2.97,2.97v20.95c0,1.64-1.33,2.97-2.97,2.97h-9.4c-1.64,0-2.97-1.33-2.97-2.97Z"/>
    <path class="cls-1" d="M315.29,50.38c8.12-.09,15,6.74,14.88,14.88,0,2.96-.79,5.65-2.37,8.06-1.16,1.77-2.61,3.23-4.35,4.36-.96.62-1.14,1.96-.44,2.87l4.65,5.98c1.02,1.31.08,3.23-1.58,3.23h-11.28c-.62,0-1.2-.29-1.58-.78l-6.21-8.05c-.38-.49-.96-.78-1.58-.78h-10.73c-1.1,0-2,.9-2,2v5.61c0,1.1-.9,2-2,2h-11.35c-1.1,0-2-.9-2-2v-35.38c0-1.1.9-2,2-2h35.94ZM292.7,63.89v2.71c0,1.1.9,2,2,2h16.72c.94,0,1.73-.32,2.37-.97.59-.59.91-1.26.98-2.02.2-2.03-1.57-3.72-3.6-3.72h-16.47c-1.1,0-2,.9-2,2Z"/>
    <path class="cls-1" d="M350.27,52.35v35.37c0,1.1-.9,2-2,2h-11.35c-1.1,0-2-.9-2-2v-35.37c0-1.1.9-2,2-2h11.35c1.1,0,2,.9,2,2Z"/>
  </g>
  <g>
    <path class="cls-2" d="M342.3,0h-23.14c-2.64,0-3.96,3.19-2.1,5.06l64.56,64.72c1.16,1.16,3.03,1.16,4.19,0l11.68-11.63c1.16-1.16,1.17-3.04,0-4.2L344.4.87c-.56-.56-1.31-.87-2.1-.87Z"/>
    <path class="cls-2" d="M472.66,129.13l-55.42-55.42c-1.16-1.16-3.04-1.16-4.19,0l-11.68,11.68c-1.16,1.16-1.16,3.03,0,4.19l43.64,43.76c.56.56,1.31.87,2.1.87l23.45-.02c2.64,0,3.96-3.2,2.09-5.06Z"/>
    <path class="cls-2" d="M470.3,9.33l-22.28-.2c-.79,0-1.56.3-2.12.86l-44.19,43.98c-1.16,1.16-1.17,3.04,0,4.2l11.35,11.35c1.16,1.16,3.04,1.16,4.19,0l55.13-55.13c1.86-1.86.56-5.04-2.07-5.06Z"/>
    <path class="cls-2" d="M318.85,143.57h23.11c.79,0,1.54-.31,2.1-.87l53.12-53.12c1.16-1.16,1.16-3.03,0-4.19l-11.38-11.41c-1.16-1.16-3.03-1.16-4.19,0l-64.85,64.54c-1.88,1.87-.55,5.07,2.09,5.07Z"/>
  </g>
  <path class="cls-2" d="M349.63,40.91l-11.09-10.84c-1.34-1.32-3.61-.36-3.61,1.52v14.77c0,1.17.95,2.12,2.12,2.12h11.09c1.17,0,2.12-.95,2.12-2.12v-3.93c0-.57-.23-1.12-.64-1.52Z"/>
  <g>
    <path class="cls-2" d="M387.96,56.95h-4.76c-.54,0-.81.66-.43,1.04l13.27,13.31c.24.24.62.24.86,0l2.4-2.39c.24-.24.24-.62,0-.86l-10.92-10.92c-.11-.11-.27-.18-.43-.18Z"/>
    <path class="cls-2" d="M414.75,83.49l-11.39-11.39c-.24-.24-.62-.24-.86,0l-2.4,2.4c-.24.24-.24.62,0,.86l8.97,9c.11.11.27.18.43.18h4.82c.54,0,.81-.66.43-1.04Z"/>
    <path class="cls-2" d="M414.27,58.86l-4.58-.04c-.16,0-.32.06-.44.18l-9.08,9.04c-.24.24-.24.62,0,.86l2.33,2.33c.24.24.62.24.86,0l11.33-11.33c.38-.38.11-1.04-.43-1.04Z"/>
    <path class="cls-2" d="M383.13,86.46h4.75c.16,0,.32-.06.43-.18l10.92-10.92c.24-.24.24-.62,0-.86l-2.34-2.35c-.24-.24-.62-.24-.86,0l-13.33,13.27c-.39.38-.11,1.04.43,1.04Z"/>
  </g>
</svg>