<?xml version="1.0" encoding="UTF-8"?>
<svg id="Layer_1" data-name="Layer 1" xmlns="http://www.w3.org/2000/svg" viewBox="0 0 512 512">
  <defs>
    <style>
      .cls-1 {
        fill: #fff;
      }

      .cls-2 {
        fill: #ed1c24;
      }
    </style>
  </defs>
  <path class="cls-1" d="M128.26,199.87v105.02c0,3.28-2.66,5.94-5.94,5.94h-33.7c-3.28,0-5.94-2.66-5.94-5.94v-105.02c0-3.28,2.66-5.94,5.94-5.94h33.7c3.28,0,5.94,2.66,5.94,5.94Z"/>
  <g>
    <path class="cls-2" d="M104.6,44.45H35.88c-7.84,0-11.77,9.47-6.23,15.02l191.66,192.15c3.43,3.44,9,3.45,12.44.02l34.69-34.52c3.45-3.44,3.46-9.02.02-12.47L110.82,47.03c-1.65-1.65-3.89-2.58-6.23-2.58Z"/>
    <path class="cls-2" d="M491.61,427.82l-164.53-164.53c-3.44-3.44-9.01-3.44-12.45,0l-34.68,34.68c-3.44,3.44-3.44,9,0,12.44l129.58,129.91c1.65,1.66,3.9,2.59,6.24,2.59l69.63-.06c7.84,0,11.76-9.49,6.22-15.03Z"/>
    <path class="cls-2" d="M484.6,72.14l-66.16-.59c-2.35-.02-4.62.9-6.29,2.56l-131.2,130.56c-3.45,3.44-3.46,9.02-.02,12.47l33.69,33.69c3.44,3.44,9.01,3.44,12.45,0l163.67-163.67c5.52-5.52,1.66-14.96-6.15-15.03Z"/>
    <path class="cls-2" d="M34.96,470.71h68.61c2.34,0,4.57-.93,6.23-2.58l157.72-157.72c3.44-3.44,3.44-9,0-12.44l-33.79-33.88c-3.43-3.44-9-3.45-12.44-.02L28.75,455.66c-5.57,5.54-1.64,15.05,6.21,15.05Z"/>
  </g>
  <path class="cls-2" d="M126.37,165.9l-32.92-32.2c-3.99-3.91-10.72-1.08-10.72,4.51v43.86c0,3.48,2.82,6.31,6.31,6.31h32.92c3.48,0,6.31-2.82,6.31-6.31v-11.66c0-1.7-.68-3.32-1.9-4.51Z"/>
  <g>
    <path class="cls-2" d="M240.14,213.52h-14.13c-1.61,0-2.42,1.95-1.28,3.09l39.4,39.5c.71.71,1.85.71,2.56,0l7.13-7.1c.71-.71.71-1.85,0-2.56l-32.41-32.41c-.34-.34-.8-.53-1.28-.53Z"/>
    <path class="cls-2" d="M319.7,292.33l-33.82-33.82c-.71-.71-1.85-.71-2.56,0l-7.13,7.13c-.71.71-.71,1.85,0,2.56l26.64,26.71c.34.34.8.53,1.28.53h14.31c1.61-.01,2.42-1.96,1.28-3.1Z"/>
    <path class="cls-2" d="M318.26,219.21l-13.6-.12c-.48,0-.95.19-1.29.53l-26.97,26.84c-.71.71-.71,1.85,0,2.56l6.93,6.93c.71.71,1.85.71,2.56,0l33.65-33.65c1.13-1.13.34-3.08-1.26-3.09Z"/>
    <path class="cls-2" d="M225.83,301.15h14.1c.48,0,.94-.19,1.28-.53l32.42-32.42c.71-.71.71-1.85,0-2.56l-6.95-6.96c-.71-.71-1.85-.71-2.56,0l-39.58,39.39c-1.14,1.14-.34,3.09,1.28,3.09Z"/>
  </g>
</svg>